<svg xmlns="http://www.w3.org/2000/svg" version="1.1" viewBox="-5.0 -10.0 110.0 135.0">
 <path d="m92.527 87.625c-0.050782-0.078125-0.10547-0.15234-0.16797-0.22266-1.6016-2.2656-3.5195-4.2891-5.6914-6.0117 1.0625-2.5117 3.2266-4.3906 5.8594-5.0977 4.4727-1.3906 6.0703-4.8594 3.375-8.8047v-0.003906c-2.2031-3.3477-2.0547-7.7266 0.375-10.914 0.65234-1.0977 1.457-2.457 0.30469-3.4727-2.5977-1.707-7.332 2.1953-9.082 6.0547-0.83203 2.0273-1.0781 4.2461-0.70703 6.4023 0.54297 2.7773-0.375 5.5547-3.207 6.707l-0.003907 0.003906c-2.4219 1.1328-4.4453 2.9727-5.8047 5.2773-0.52344-0.070313-1.0547-0.10938-1.582-0.125 0-1.3906-0.082031-2.7773 1.3906-3.293h-0.003907c1.5586-0.51562 2.7461-1.7852 3.1523-3.375l4.707-17.668h0.003906c0.40625-1.5352-0.41016-3.1289-1.8984-3.6914-1.4844-0.5625-3.1562 0.089844-3.8672 1.5117l-3.707 7.625-0.97266-20.402c-0.11719-1.8945-1.6914-3.375-3.5898-3.375-1.8984 0-3.4727 1.4805-3.5898 3.375l-1.1523 18.82h-0.14062l-0.69531-15.859v-0.003907c0-0.36719-0.14453-0.71875-0.40625-0.98047-0.25781-0.26172-0.61328-0.40625-0.98047-0.40625-0.76953 0-1.3906 0.62109-1.3906 1.3867l0.625 15.863c0.14453 1.4648 1.3789 2.5781 2.8477 2.5781 1.4727 0 2.7031-1.1133 2.8477-2.5781l1.1797-18.805c0.054687-0.41016 0.40234-0.71484 0.8125-0.71484 0.41406 0 0.76172 0.30469 0.8125 0.71484l1.2773 25.68c0.039063 0.625 0.49219 1.1445 1.1055 1.2734 0.61328 0.125 1.2383-0.17188 1.5195-0.73438l6.1953-12.375c0.097656-0.34766 0.69531-0.10938 0.58203 0.25l-4.707 17.809c-0.20703 0.66016-0.72656 1.1797-1.3867 1.3867-1.9961 0.66016-3.3398 2.5273-3.3359 4.625v1.5859c-0.94141 0.15625-1.8672 0.38281-2.7773 0.67969v-8.875c0-0.76953-0.62109-1.3906-1.3867-1.3906-0.76953 0-1.3906 0.62109-1.3906 1.3906v9.8203c-0.89062 0.32031-1.8047 0.60938-2.7773 0.85938 0.45703-4.168-2.168-7.8906-6.4844-7.9023h-0.003906c-1.4414-0.003906-2.7539-0.84375-3.3594-2.1523l-7.3477-15.805c-0.26172-0.60156-0.019532-1.3008 0.55469-1.6133 0.57031-0.3125 1.2891-0.14062 1.6523 0.40234l5.5547 8.793h0.003907c0.34375 0.47656 0.94922 0.6875 1.5156 0.51953 0.56641-0.16406 0.96484-0.66797 0.99609-1.2578l1.2773-31.945v0.003907c0-0.83984 0.68359-1.5234 1.5234-1.5234 0.83984 0 1.5195 0.68359 1.5195 1.5234l0.33203 7.6797c0.035157 0.76562 0.6875 1.3594 1.4531 1.3242 0.76562-0.03125 1.3594-0.68359 1.3242-1.4492l-0.33203-7.6406c-0.12891-2.2695-2.0078-4.0469-4.2852-4.0469-2.2734 0-4.1562 1.7773-4.2852 4.0469l-1.1523 27.473-3.1094-4.9727c-0.57422-0.92969-1.5-1.5859-2.5703-1.8164-1.5-0.3125-3.0469 0.24609-4 1.4453-0.95703 1.1953-1.1602 2.8242-0.52734 4.2188l7.4297 15.82c1.0703 2.2734 3.3477 3.7305 5.8633 3.75 2.0469 0 3.707 1.6602 3.707 3.707v1.918c-6.8047 0.85938-13.695-3.293-17.832-6.7773-7.4727-6.582-14.598-6.5547-19.625 3.2227l-2.1953-0.80469 0.66797-12.027-0.003906-0.003906c0.050781-0.82031-0.26953-1.6211-0.87109-2.1836-0.60156-0.5625-1.4219-0.83203-2.2383-0.73047l-8.1797 1.0273c-1.457 0.17969-2.5234 1.4648-2.4297 2.9297l0.25 4.168h-1.3906l-2.8477-15.461 9.3906-1.043-0.29297 5.293c0 0.73828 0.57031 1.3477 1.3047 1.3906 0.73828 0 1.3438-0.57031 1.3906-1.3047l0.29297-5.293h-0.003906c0.046875-0.81641-0.26953-1.6133-0.86328-2.1719-0.59375-0.5625-1.4062-0.83594-2.2188-0.74609l-9.375 1.043c-0.76562 0.085937-1.4648 0.48828-1.9219 1.1133-0.46094 0.62109-0.63672 1.4062-0.49609 2.1641l2.875 15.016c-0.82031-0.058593-1.6289 0.25-2.1992 0.84766-0.57422 0.59375-0.85156 1.4141-0.75781 2.2344l2.625 23.457c0.085937 0.76953 0.77344 1.3203 1.543 1.2383 0.76563-0.085937 1.3203-0.77344 1.2344-1.543l-2.625-23.457h4.4883l1.3906 23.609h-0.003906c0.042968 0.76953 0.69922 1.3555 1.4648 1.3125 0.76953-0.039062 1.3555-0.69531 1.3125-1.4648l-1.7891-30.582 8.168-1.0156-1.75 31.668h-0.003907c-0.019531 0.36719 0.10938 0.73047 0.35547 1.0039 0.24609 0.27344 0.58984 0.44141 0.95703 0.46094 0.76953 0.042968 1.4258-0.54688 1.4648-1.3125l0.92969-16.668 2.4727 0.89062 3.6797 1.3906-4.2461 13.914c-0.22266 0.73828 0.19141 1.5156 0.92969 1.7383 0.73828 0.22266 1.5117-0.19531 1.7344-0.93359l1.9297-6.3906 0.003907 0.003906c0.98438 0.40625 1.7305 1.2422 2.0234 2.2656 0.29688 1.0273 0.10938 2.1289-0.51172 2.9961-0.23047 0.32031-0.31641 0.71875-0.23438 1.1055 0.082032 0.38281 0.32031 0.71484 0.66016 0.91406 0.33984 0.19922 0.74609 0.24219 1.1211 0.12109 0.375-0.11719 0.67969-0.39062 0.84375-0.75 1.0586-1.6094 1.3164-3.6172 0.70313-5.4453-0.60938-1.8242-2.0273-3.2695-3.8438-3.9141l1.5-4.9727c0.42969-1.4141-0.32031-2.9141-1.707-3.418l-2.125-0.77734c4.168-7.6953 8.9023-7.543 15.277-1.9727 6.9453 5.9023 16.668 9.9453 26.668 5.5547 1.7773-0.71875 3.6484-1.1836 5.5547-1.3867 0.51562-0.035157 1.0391-0.035157 1.5547 0-1 2.832-1.5547 5.8008-1.6367 8.8047-3.5547 0.34766-5.8906-1.5703-9.082 0-1.875 1.0703-3.0273 3.293-3.457 6.582h-0.003906c-0.097656 0.76953 0.44922 1.4688 1.2148 1.5625 0.76562 0.097656 1.4648-0.44922 1.5625-1.2148 0.66797-3.793 1.3906-5.418 5.0703-4.5977 5.9023 1.1094 13.668 0.41797 15.695-7.0977 1.2461 1.0781 2.3789 2.2812 3.3867 3.5859-1.3984 0.92188-2.3711 2.3633-2.7031 4.0039-0.33594 1.6406 0 3.3477 0.92578 4.7461 0.16016 0.35547 0.46875 0.62891 0.84375 0.75 0.37109 0.12109 0.78125 0.074219 1.1211-0.12109 0.33984-0.19922 0.57812-0.53125 0.66016-0.91406 0.082031-0.38672-0.003906-0.78906-0.23438-1.1055-0.55078-0.78125-0.75781-1.7539-0.57422-2.6914 0.18359-0.94141 0.74219-1.7617 1.543-2.2812 1.3516 1.9883 2.5469 4.0703 3.5859 6.2383 0.22656 0.49219 0.71875 0.80469 1.2617 0.80469 0.47656 0 0.91797-0.24609 1.1719-0.64844 0.25391-0.40234 0.28516-0.91016 0.078125-1.3398-1.25-2.6602-2.7305-5.207-4.4297-7.6094zm-8.8203-6.1797c-0.20312 0.66406-0.35938 1.3398-0.47266 2.0273-0.98438 2.875-2.6094 4.7344-5.5547 5.1523 0.45703-6.2227 1.8594-11.359 7.1523-13.957 3.582-1.6328 5.5352-5.5469 4.6836-9.3906-0.31641-1.6758-0.14844-3.4023 0.48438-4.9844 0.6875-1.4883 1.7383-2.7773 3.0547-3.75-2.1836 3.8555-2.0273 8.6094 0.40234 12.316 1.75 2.7773 1.082 3.7656-1.9727 4.8477-3.0547 1.0859-6.9141 3.918-7.7773 7.7383zm-49.539 2.2891c0.46484 0.46875 0.53516 1.2031 0.16797 1.7539-0.36719 0.55078-1.0703 0.76562-1.6836 0.51172-0.17188-0.066406-0.32422-0.16406-0.45703-0.29297-0.43359-0.42969-0.53516-1.0977-0.24609-1.6367 0.28516-0.53906 0.89453-0.82812 1.4961-0.71094 0.089844 0.015625 0.17969 0.042969 0.26172 0.085937l0.25 0.125zm1.9414-6.4844c0.070313-0.16797 0.17188-0.32422 0.29297-0.45703l0.20703-0.16797 0.25-0.125c0.082031-0.039062 0.16406-0.066406 0.25-0.082031 0.17969-0.042969 0.36328-0.042969 0.54297 0 0.09375 0.011719 0.17969 0.039062 0.26562 0.082031l0.25 0.125 0.20703 0.16797c0.40625 0.40234 0.52344 1.0117 0.29688 1.5391-0.22656 0.52344-0.75391 0.85547-1.3242 0.83594-0.45312-0.015625-0.87109-0.25391-1.1211-0.63672-0.24609-0.38281-0.28906-0.85938-0.11719-1.2812zm13.738 8.8594c0 0.76953-0.62109 1.3906-1.3906 1.3906-0.76562 0-1.3867-0.62109-1.3867-1.3906 0-0.73438-0.29297-1.4414-0.81641-1.9609-0.51953-0.52344-1.2266-0.81641-1.9609-0.81641-0.87891 0.003907-1.7031 0.42188-2.2227 1.1289-0.51953 0.70703-0.67969 1.6133-0.42578 2.4531 0.25391 0.83984 0.89062 1.5117 1.7148 1.8086s1.7422 0.19141 2.4727-0.29297c0.64062-0.40625 1.4883-0.22266 1.9062 0.41016 0.41797 0.63281 0.25 1.4844-0.37891 1.9102-2.1211 1.4062-4.9258 1.1914-6.8086-0.52344-1.8828-1.7148-2.3594-4.4883-1.1562-6.7305 1.2031-2.2461 3.7773-3.3828 6.2461-2.7656 2.4688 0.61719 4.2031 2.8359 4.207 5.3789zm6.9453-1.3906v0.003906c-2.3008 0-4.168 1.8633-4.168 4.168 0 2.3008 1.8672 4.1641 4.168 4.1641s4.1641-1.8633 4.1641-4.1641c0-2.3047-1.8633-4.168-4.1641-4.168zm0 5.5547v0.003906c-0.76953 0-1.3906-0.62109-1.3906-1.3867 0-0.76953 0.62109-1.3906 1.3906-1.3906 0.76562 0 1.3867 0.62109 1.3867 1.3906 0 0.76562-0.62109 1.3867-1.3867 1.3867zm20.832-69.445v0.003906c2.3008 0 4.168-1.8633 4.168-4.1641s-1.8672-4.168-4.168-4.168-4.168 1.8672-4.168 4.168 1.8672 4.1641 4.168 4.1641zm0-5.5547v0.003906c0.76562 0 1.3906 0.62109 1.3906 1.3906 0 0.76562-0.625 1.3867-1.3906 1.3867s-1.3906-0.62109-1.3906-1.3867c0-0.76953 0.625-1.3906 1.3906-1.3906zm-28.18 79.574c0.39844 0.39844 0.51953 0.99609 0.30469 1.5195-0.21875 0.51953-0.72656 0.85937-1.293 0.85547-0.45312-0.015625-0.87109-0.25391-1.1172-0.63672-0.24609-0.38281-0.28906-0.85938-0.11719-1.2812 0.066406-0.16797 0.16406-0.32422 0.29297-0.45703 0.53516-0.51953 1.3906-0.51953 1.9297 0zm-11.109-2.7773h-0.003907c0.49219 0.48047 0.55469 1.25 0.15234 1.8047-0.40234 0.55859-1.1523 0.73438-1.7656 0.41797-0.60938-0.31641-0.89453-1.0312-0.67188-1.6836 0.22266-0.64844 0.88672-1.0391 1.5625-0.91406 0.09375 0.011719 0.18359 0.039063 0.26562 0.082032 0.089844 0.03125 0.17188 0.074218 0.25 0.125 0.074219 0.050781 0.14062 0.10547 0.20703 0.16797zm45.832 0c0.26172 0.26172 0.41016 0.61328 0.41016 0.98438 0 0.37109-0.14844 0.72656-0.41016 0.98828-0.14062 0.12109-0.29297 0.22266-0.46094 0.30469-0.51953 0.21484-1.1172 0.09375-1.5117-0.30469-0.125-0.13672-0.22266-0.29297-0.29297-0.46094-0.21875-0.51562-0.10156-1.1133 0.29297-1.5117 0.39844-0.39453 0.99609-0.51172 1.5117-0.29297 0.16797 0.070312 0.32422 0.16797 0.46094 0.29297zm-13.598 3.2344c0.25 0.61328 0.039063 1.3164-0.51172 1.6836-0.55078 0.37109-1.2852 0.29688-1.7539-0.16797-0.12109-0.13672-0.21875-0.28906-0.28906-0.46094-0.15234-0.33203-0.15234-0.71875 0-1.0547 0.0625-0.16797 0.16406-0.32422 0.28906-0.45703 0.26172-0.26172 0.61719-0.41016 0.98828-0.41016 0.36719 0 0.72266 0.14844 0.98438 0.41016 0.125 0.13281 0.22656 0.28906 0.29297 0.45703zm6.6523-0.45703c0.51562 0.49219 0.57422 1.2969 0.13281 1.8594-0.44141 0.5625-1.2383 0.69922-1.8398 0.31641-0.60156-0.38281-0.81641-1.1641-0.49219-1.8008 0.32031-0.63672 1.0742-0.92578 1.7422-0.66797 0.16797 0.070312 0.32031 0.16797 0.45703 0.29297zm-6.543-8.7383c-0.36328-0.015625-0.71094-0.16016-0.98438-0.40234-0.54687-0.54297-0.54687-1.4258 0-1.9727 0.54297-0.54297 1.4258-0.54297 1.9727 0 0.26172 0.26172 0.41016 0.61719 0.41016 0.98828s-0.14844 0.72656-0.41016 0.98438c-0.27734 0.24219-0.62109 0.38281-0.98828 0.40234zm14.043-60.582c-0.20312-0.46875-0.12891-1.0078 0.1875-1.4102 0.3125-0.39844 0.82422-0.59375 1.3242-0.50781l0.25 0.082031v0.003906c0.089844 0.03125 0.17578 0.070313 0.25 0.125l0.20703 0.16797 0.003906-0.003906c0.26172 0.26172 0.41016 0.61719 0.41016 0.98828s-0.14844 0.72656-0.41016 0.98438l-0.20703 0.16797h-0.003906c-0.074219 0.050781-0.16016 0.09375-0.25 0.125l-0.25 0.082031c-0.45312 0.078125-0.92188-0.058593-1.2617-0.375-0.10547-0.12891-0.19141-0.27344-0.25-0.42969zm-4.9023 6.6523 0.22266 0.16797c0.26172 0.26172 0.41016 0.61719 0.41016 0.98438 0 0.37109-0.14844 0.72656-0.41016 0.98828l-0.22266 0.16797v-0.003906c-0.070312 0.058594-0.15234 0.097656-0.23828 0.125-0.082031 0.042969-0.17188 0.070313-0.26172 0.085937-0.45312 0.074219-0.91406-0.066406-1.25-0.375-0.43359-0.43359-0.53516-1.0977-0.24609-1.6406 0.28516-0.53906 0.89453-0.82813 1.4961-0.70703 0.089844 0.011719 0.17969 0.039063 0.26172 0.082032 0.070313 0.03125 0.13672 0.074218 0.19531 0.125zm-25.805-21.07c2.3008 0 4.1641-1.8633 4.1641-4.1641 0-2.3008-1.8633-4.168-4.1641-4.168-2.3047 0-4.168 1.8672-4.168 4.168 0 2.3008 1.8633 4.1641 4.168 4.1641zm0-5.5547c0.76562 0 1.3867 0.62109 1.3867 1.3906 0 0.76563-0.62109 1.3867-1.3867 1.3867-0.76953 0-1.3906-0.62109-1.3906-1.3867 0-0.76953 0.62109-1.3906 1.3906-1.3906zm-9.3203 10.707v0.003906c-0.43359-0.43359-0.53516-1.0977-0.24609-1.6406 0.28516-0.53906 0.89453-0.82812 1.4961-0.70703 0.089844 0.011719 0.17969 0.039062 0.26172 0.082031l0.25 0.125 0.20703 0.16797h0.003907c0.26172 0.25781 0.41016 0.61328 0.41016 0.98438s-0.14844 0.72656-0.41016 0.98828l-0.20703 0.16797-0.25 0.125-0.003907-0.003906c-0.082031 0.042968-0.17188 0.070312-0.26172 0.085937h-0.26562c-0.36328 0-0.71484-0.13281-0.98438-0.375zm8.918 8.332-0.003906 0.003906c-0.54297 0.54297-1.4258 0.54297-1.9688 0-0.54688-0.54688-0.54688-1.4297 0-1.9727 0.54297-0.54297 1.4258-0.54297 1.9688 0 0.54688 0.54297 0.54688 1.4258 0 1.9727zm-12.098 14.297c2.3008 0 4.1641-1.8672 4.1641-4.168 0-2.3008-1.8633-4.168-4.1641-4.168-2.3047 0-4.168 1.8672-4.168 4.168 0 2.3008 1.8633 4.168 4.168 4.168zm0-5.5547v-0.003907c0.76562 0 1.3867 0.625 1.3867 1.3906s-0.62109 1.3867-1.3867 1.3867c-0.76953 0-1.3906-0.62109-1.3906-1.3867s0.62109-1.3906 1.3906-1.3906zm-9.3203 10.707c-0.43359-0.43359-0.53516-1.0977-0.24609-1.6406 0.28516-0.53906 0.89453-0.82812 1.4961-0.70703 0.089844 0.011719 0.17969 0.039063 0.26172 0.082032 0.089844 0.03125 0.17578 0.074218 0.25 0.125 0.074219 0.050781 0.14453 0.10547 0.21094 0.16797 0.26172 0.26172 0.41016 0.61328 0.41016 0.98438 0 0.37109-0.14844 0.72656-0.41016 0.98828l-0.20703 0.16797-0.003907-0.003907c-0.074219 0.054688-0.16016 0.097657-0.25 0.125-0.082031 0.042969-0.17188 0.070313-0.26172 0.085938h-0.26562c-0.36328 0.007812-0.71875-0.125-0.98438-0.375zm8.707 6.1953 0.20703 0.16797v-0.003906c0.54688 0.54688 0.54688 1.4297 0 1.9727-0.54297 0.54297-1.4258 0.54297-1.9688 0-0.125-0.13672-0.22656-0.29297-0.30859-0.45703-0.21094-0.51953-0.09375-1.1172 0.30859-1.5156l0.20703-0.16797 0.25-0.125c0.078125-0.039063 0.16406-0.066406 0.25-0.082031 0.17969-0.042969 0.36328-0.042969 0.54297 0 0.089844 0.011718 0.17969 0.042968 0.26172 0.082031z"/>
<text x="0.0" y="117.5" font-size="5.0" font-weight="bold" font-family="Arbeit Regular, Helvetica, Arial-Unicode, Arial, Sans-serif" fill="#000000">Created by Muhammad Fadli Rusady</text><text x="0.0" y="122.5" font-size="5.0" font-weight="bold" font-family="Arbeit Regular, Helvetica, Arial-Unicode, Arial, Sans-serif" fill="#000000">from Noun Project</text></svg>