<?xml version="1.0" standalone="no"?>
<!DOCTYPE svg PUBLIC "-//W3C//DTD SVG 20010904//EN"
 "http://www.w3.org/TR/2001/REC-SVG-20010904/DTD/svg10.dtd">
<svg version="1.0" xmlns="http://www.w3.org/2000/svg"
 width="300.000000pt" height="300.000000pt" viewBox="0 0 300.000000 300.000000"
 preserveAspectRatio="xMidYMid meet">
<metadata>
Created by potrace 1.10, written by Peter Selinger 2001-2011
</metadata>
<g transform="translate(0.000000,300.000000) scale(0.100000,-0.100000)"
fill="#000000" stroke="none">
<path d="M1310 2019 c0 -8 9 -63 20 -123 20 -109 19 -126 -4 -126 -21 0 -157
-93 -195 -133 l-34 -36 -24 29 c-36 43 -141 124 -199 153 -57 29 -119 43 -128
29 -7 -12 44 -203 72 -265 12 -26 30 -60 41 -75 l19 -27 -34 -55 c-32 -53 -77
-189 -91 -273 l-6 -40 39 7 c66 13 172 76 244 146 l68 66 59 -45 c58 -44 208
-121 236 -121 31 0 26 -18 -23 -88 -28 -39 -50 -76 -50 -82 0 -6 30 -10 75
-10 94 0 163 25 231 84 43 38 58 45 110 51 80 10 197 48 262 85 73 43 180 147
242 235 l52 76 -58 66 c-71 80 -160 155 -245 206 -65 38 -201 87 -242 87 -14
0 -46 22 -83 58 -85 83 -175 126 -276 131 -61 2 -78 0 -78 -10z m218 -69 c33
-17 77 -49 98 -71 l38 -39 -54 0 c-48 0 -140 -16 -207 -36 -20 -5 -23 -3 -23
22 0 16 -7 58 -14 94 -8 36 -12 68 -10 71 8 14 118 -12 172 -41z m307 -174
c112 -36 207 -97 314 -202 l94 -93 -18 -28 c-104 -162 -251 -273 -415 -314
-82 -21 -248 -16 -345 10 -104 28 -226 87 -294 142 -29 24 -59 48 -65 52 -7 5
-41 -21 -91 -70 -70 -68 -181 -143 -213 -143 -10 0 24 129 52 195 9 22 31 57
47 78 l31 38 -25 32 c-39 51 -64 108 -91 205 -14 50 -26 94 -26 97 0 3 33 -11
72 -32 47 -24 102 -66 153 -115 44 -43 82 -78 85 -78 3 0 27 23 53 50 127 132
294 198 499 199 87 1 122 -4 183 -23z m-277 -683 c34 -3 62 -9 62 -13 0 -14
-92 -70 -129 -79 -56 -14 -113 -21 -109 -13 2 4 21 33 42 65 29 42 44 56 55
51 9 -3 44 -8 79 -11z"/>
<path d="M1806 1628 c-23 -54 -38 -157 -31 -212 9 -67 35 -165 47 -172 23 -14
29 15 15 63 -25 84 -29 171 -12 243 21 87 22 102 7 107 -7 3 -18 -10 -26 -29z"/>
<path d="M1966 1554 c-36 -35 -7 -104 42 -104 29 0 62 34 62 63 0 49 -70 76
-104 41z"/>
</g>
</svg>
